<?xml version="1.0" standalone="no"?>
<!DOCTYPE svg PUBLIC "-//W3C//DTD SVG 20010904//EN"
 "http://www.w3.org/TR/2001/REC-SVG-20010904/DTD/svg10.dtd">
<svg version="1.0" xmlns="http://www.w3.org/2000/svg"
 width="1024.000000pt" height="1024.000000pt" viewBox="0 0 1024.000000 1024.000000"
 preserveAspectRatio="xMidYMid meet">

<g transform="translate(0.000000,1024.000000) scale(0.100000,-0.100000)"
fill="#000000" stroke="none">
<path d="M0 5120 l0 -5120 5120 0 5120 0 0 5120 0 5120 -5120 0 -5120 0 0
-5120z m5434 2945 c889 -135 1585 -825 1708 -1690 7 -51 13 -183 12 -305 0
-237 -15 -354 -73 -561 -154 -548 -538 -1009 -1052 -1263 -629 -311 -1397
-278 -1986 87 -523 325 -862 842 -948 1448 -19 135 -19 416 0 561 67 510 323
960 731 1284 136 108 241 174 408 254 225 109 455 174 696 199 122 13 377 5
504 -14z m-3031 -4468 c70 -32 84 -55 61 -103 -27 -57 -56 -64 -117 -29 -69
40 -170 42 -233 7 -112 -65 -145 -248 -64 -360 58 -81 190 -109 295 -63 61 27
89 27 115 -1 46 -50 5 -111 -95 -143 -85 -26 -241 -18 -317 17 -70 32 -133 96
-167 168 -23 49 -26 67 -26 170 0 103 3 121 26 171 44 94 128 164 226 189 21
5 84 8 140 6 82 -3 112 -9 156 -29z m724 -2 c148 -66 229 -226 202 -398 -20
-126 -92 -221 -207 -275 -52 -25 -68 -27 -182 -27 -117 0 -128 2 -180 28 -72
37 -131 96 -166 165 -27 53 -29 66 -29 167 0 98 3 116 26 166 33 69 91 130
159 164 73 37 114 45 220 41 79 -2 106 -8 157 -31z m3568 20 c99 -26 125 -67
85 -132 -24 -40 -44 -41 -106 -8 -108 58 -228 8 -184 -76 14 -24 53 -44 157
-79 139 -46 185 -96 186 -200 1 -103 -54 -180 -152 -215 -58 -20 -196 -20
-258 1 -91 30 -128 94 -87 152 20 29 55 28 105 -5 42 -28 124 -41 173 -29 35
9 66 45 66 76 0 39 -36 66 -129 100 -101 37 -151 62 -172 86 -74 84 -63 233
22 296 64 48 184 61 294 33z m723 5 c114 -27 196 -93 245 -198 28 -60 31 -77
31 -157 0 -70 -5 -103 -24 -150 -31 -80 -102 -154 -183 -191 -57 -27 -71 -29
-182 -29 -108 0 -125 3 -175 26 -76 35 -121 77 -158 146 -94 178 -38 414 122
508 83 49 223 68 324 45z m-3771 -49 c21 -27 99 -133 173 -236 l135 -187 3
223 c1 148 6 227 14 236 7 9 28 13 62 11 78 -5 77 0 74 -369 -3 -296 -4 -318
-22 -338 -23 -26 -91 -29 -124 -5 -13 9 -95 112 -182 230 -88 118 -161 214
-162 214 -2 0 -2 -93 0 -206 4 -243 1 -254 -73 -254 -32 0 -51 6 -65 20 -19
19 -20 33 -20 336 0 378 -1 374 97 374 51 0 54 -1 90 -49z m721 37 c5 -7 49
-116 97 -243 49 -126 91 -234 95 -238 4 -4 15 14 25 40 90 245 160 421 173
436 18 20 111 24 130 5 22 -22 13 -56 -76 -270 -49 -117 -106 -257 -127 -312
-46 -121 -60 -136 -123 -136 -54 0 -85 17 -100 57 -6 15 -63 159 -127 320 -63
161 -115 300 -115 311 0 10 5 23 12 30 16 16 123 16 136 0z m1150 0 c18 -18
15 -88 -5 -110 -14 -16 -34 -18 -180 -18 l-163 0 0 -80 0 -80 134 0 c147 0
146 0 146 -63 0 -59 -18 -67 -159 -67 l-126 0 3 -80 4 -80 163 0 c135 0 166
-3 179 -16 22 -22 20 -66 -5 -98 l-20 -26 -218 0 c-172 0 -221 3 -237 14 -18
14 -19 29 -19 349 0 268 3 337 14 350 12 15 42 17 245 17 167 0 235 -3 244
-12z m540 -3 c97 -29 160 -109 169 -216 10 -111 -32 -207 -113 -258 l-44 -29
60 -78 c64 -83 72 -107 41 -124 -29 -15 -107 -12 -124 4 -7 8 -40 50 -72 95
l-58 81 -49 0 -48 0 0 -83 c0 -51 -5 -88 -12 -95 -7 -7 -33 -12 -58 -12 -25 0
-51 5 -58 12 -9 9 -12 101 -12 355 0 315 1 343 18 352 28 17 300 13 360 -4z
m2149 0 c71 -21 126 -65 154 -122 19 -39 24 -64 24 -128 -1 -69 -5 -87 -30
-133 -17 -31 -47 -67 -72 -84 l-43 -31 27 -36 c15 -20 42 -56 60 -80 18 -24
33 -52 33 -62 0 -26 -34 -41 -88 -37 -47 3 -47 3 -120 101 l-73 97 -49 0 -50
0 0 -84 c0 -99 -10 -116 -71 -116 -84 0 -79 -22 -79 357 0 299 2 338 17 355
14 16 33 18 163 18 101 0 162 -5 197 -15z m-4661 -1000 c59 -17 118 -71 135
-122 19 -59 7 -147 -27 -195 -46 -66 -98 -87 -226 -90 -58 -2 -110 1 -115 5
-9 9 -7 393 3 408 9 15 176 10 230 -6z m522 -13 c6 -43 -13 -52 -114 -52 l-94
0 0 -50 0 -50 84 0 c77 0 85 -2 91 -20 12 -38 -11 -50 -96 -50 l-79 0 0 -50 0
-50 93 0 c103 0 120 -7 115 -41 -3 -24 -4 -24 -142 -27 -105 -2 -141 1 -148
10 -13 22 -10 382 4 396 9 9 51 12 148 10 132 -3 135 -3 138 -26z m350 11 c11
-10 51 -78 88 -151 l69 -132 31 67 c92 200 104 223 131 229 56 14 58 5 58
-212 l0 -199 -37 -3 -38 -3 0 127 c0 71 -4 124 -8 119 -5 -6 -28 -55 -52 -110
-76 -174 -90 -175 -175 -8 l-60 118 -3 -121 c-2 -115 -4 -122 -24 -127 -12 -3
-30 -2 -40 4 -16 9 -18 26 -18 204 0 174 2 195 18 204 25 15 37 13 60 -6z
m811 -16 c112 -74 130 -219 40 -320 -133 -152 -388 -63 -389 136 0 87 47 161
125 199 61 29 168 22 224 -15z m479 -1 c2 -16 -2 -32 -10 -37 -7 -5 -57 -9
-111 -9 l-98 0 3 -47 3 -48 88 -3 88 -3 -3 -32 -3 -32 -87 -3 -88 -3 0 -49 0
-49 108 -3 107 -3 0 -30 0 -30 -145 0 -145 0 -3 195 c-1 107 0 200 3 207 3 11
37 13 147 11 l143 -3 3 -29z m352 12 c67 -28 120 -112 120 -189 0 -50 -31
-118 -70 -153 -51 -46 -98 -57 -217 -54 l-98 3 -3 199 c-2 153 1 202 10 208
20 14 218 3 258 -14z m382 5 c8 -10 29 -54 48 -98 122 -294 123 -298 95 -309
-26 -10 -62 11 -73 43 l-11 31 -94 0 -95 0 -12 -30 c-16 -39 -43 -54 -70 -40
-11 6 -20 14 -20 19 0 14 140 354 156 379 17 26 55 29 76 5z m443 2 c46 -19
55 -43 26 -66 -21 -17 -25 -17 -51 -4 -39 20 -73 19 -101 -4 -37 -30 -15 -62
59 -89 75 -28 109 -55 120 -95 31 -117 -112 -198 -238 -134 -50 25 -56 35 -36
62 13 18 17 19 48 6 48 -20 102 -25 127 -11 17 9 21 19 19 42 -3 28 -9 34 -73
59 -87 35 -125 74 -125 128 0 94 120 151 225 106z"/>
<path d="M5056 7883 c-3 -21 -6 -87 -6 -146 l0 -108 -47 3 -48 3 -15 135 -15
135 -38 -1 c-21 -1 -39 -3 -41 -5 -3 -2 3 -66 11 -142 8 -76 13 -140 11 -142
-1 -1 -24 -5 -49 -9 l-46 -7 -29 133 -30 133 -37 -1 c-21 -1 -40 -4 -43 -6 -2
-3 9 -65 27 -138 17 -72 27 -135 23 -140 -16 -14 -78 -30 -85 -23 -3 5 -26 64
-49 133 -24 69 -44 126 -45 127 -4 8 -75 -23 -75 -32 0 -10 60 -183 85 -247 6
-14 -3 -22 -40 -38 -26 -11 -49 -19 -50 -18 -1 2 -26 55 -55 118 -66 144 -65
142 -98 128 -15 -7 -31 -15 -35 -18 -4 -4 19 -64 53 -135 33 -70 60 -131 60
-134 0 -3 -18 -16 -39 -28 l-39 -23 -82 126 -81 125 -30 -22 c-19 -13 -28 -27
-24 -36 3 -9 38 -65 77 -125 l72 -110 -25 -19 c-55 -44 -51 -46 -144 69 -48
59 -91 108 -94 110 -4 1 -20 -7 -34 -19 l-27 -21 20 -28 c11 -15 51 -65 90
-111 38 -46 70 -87 70 -91 0 -4 -16 -19 -35 -34 l-35 -26 -101 96 c-56 53
-105 96 -109 96 -4 0 -17 -11 -30 -25 l-23 -25 102 -100 c106 -103 106 -104
68 -147 l-19 -22 -120 90 c-66 50 -120 89 -121 87 -1 -1 -12 -15 -25 -30 l-24
-26 121 -92 120 -93 -20 -28 c-29 -41 -34 -42 -76 -16 -71 45 -202 117 -212
117 -6 0 -17 -13 -26 -29 l-15 -29 73 -45 c39 -25 98 -59 130 -77 l57 -32 -22
-39 c-26 -46 -15 -48 -180 27 l-118 53 -15 -29 c-8 -16 -15 -33 -15 -38 0 -5
60 -36 134 -68 l134 -58 -11 -30 c-18 -57 -22 -58 -157 -15 -69 21 -132 39
-141 39 -15 0 -29 -27 -29 -57 0 -7 57 -30 128 -53 70 -22 132 -43 139 -45 18
-6 -5 -85 -26 -85 -9 0 -68 9 -131 20 -149 26 -147 26 -155 -11 -4 -17 -5 -33
-2 -35 2 -3 67 -18 143 -33 81 -17 139 -33 138 -40 -1 -6 -2 -25 -2 -42 l-2
-32 -152 4 -153 4 -3 -36 -3 -37 118 -6 c65 -4 133 -9 151 -12 33 -5 34 -6 27
-42 -4 -20 -8 -39 -10 -41 -3 -2 -68 -9 -147 -15 l-143 -11 -3 -39 -3 -39 150
7 151 7 2 -25 c1 -14 2 -33 2 -42 1 -14 -27 -22 -143 -46 -80 -15 -146 -30
-149 -32 -2 -3 -1 -18 3 -35 8 -38 8 -38 172 -10 68 12 126 20 127 18 2 -2 6
-23 10 -45 l6 -42 -135 -37 c-74 -21 -139 -41 -145 -45 -15 -9 0 -70 16 -70
14 0 126 28 218 56 27 7 53 14 57 14 8 0 33 -79 27 -85 -2 -1 -64 -26 -138
-55 -74 -29 -136 -54 -137 -54 -1 -1 3 -19 9 -39 13 -43 -1 -45 174 23 l122
47 16 -34 c9 -18 16 -38 16 -42 0 -5 -61 -38 -136 -75 -131 -63 -135 -66 -123
-88 25 -49 27 -49 110 -7 44 22 104 50 134 64 l55 24 20 -39 20 -38 -125 -78
c-69 -42 -125 -82 -125 -88 0 -15 29 -56 39 -56 4 0 60 34 124 75 65 41 121
75 125 75 4 0 17 -16 29 -35 l23 -34 -108 -87 c-59 -48 -111 -91 -116 -95 -4
-4 2 -21 15 -38 l22 -30 31 21 c17 12 69 53 115 92 90 75 100 76 131 23 15
-27 14 -27 -88 -130 l-102 -102 27 -28 28 -27 105 105 105 104 37 -32 37 -32
-93 -115 c-89 -109 -93 -116 -78 -133 41 -46 46 -43 133 70 45 60 86 112 90
116 8 10 79 -33 79 -49 0 -6 -34 -64 -75 -129 -70 -109 -74 -118 -58 -131 19
-15 53 -28 57 -22 1 1 35 55 75 118 41 63 75 117 77 119 2 2 60 -29 82 -45 2
-1 -26 -58 -62 -127 -36 -69 -66 -129 -66 -134 0 -5 16 -17 35 -26 l35 -17 67
134 66 133 39 -17 c21 -9 41 -20 44 -23 3 -3 -17 -65 -45 -138 -28 -73 -48
-136 -43 -140 4 -3 21 -11 38 -17 l32 -10 47 127 c25 70 49 132 53 138 9 15
92 -6 92 -23 0 -7 -13 -68 -30 -137 -16 -69 -30 -130 -30 -136 0 -14 71 -26
79 -13 3 5 19 69 35 142 l29 131 41 -6 c23 -4 45 -11 49 -15 5 -4 2 -64 -7
-132 -21 -164 -22 -154 21 -161 20 -4 39 -4 41 -2 3 2 12 66 21 142 l17 138
44 0 45 0 3 -147 3 -148 44 0 45 0 0 144 0 145 45 7 c25 3 48 5 49 3 2 -2 10
-67 17 -144 l14 -140 34 -3 c18 -2 38 1 43 6 5 5 2 61 -7 138 -8 71 -15 134
-15 141 0 12 86 30 96 20 3 -3 19 -65 35 -138 16 -73 31 -135 33 -137 6 -6 76
10 76 17 0 4 -13 69 -30 144 -16 76 -30 139 -30 141 0 3 82 26 94 26 2 0 25
-63 51 -140 26 -77 49 -140 51 -140 3 0 20 6 39 14 l34 15 -45 133 c-24 73
-43 137 -40 143 5 15 77 38 86 29 4 -5 31 -61 60 -124 29 -63 55 -118 59 -123
9 -9 71 11 71 23 0 5 -27 66 -60 137 -67 140 -67 132 1 168 l26 14 72 -125
c40 -68 77 -126 81 -129 5 -3 21 5 36 19 l28 23 -72 121 c-40 66 -72 123 -72
126 0 8 80 60 84 55 2 -2 36 -49 77 -104 41 -55 79 -106 85 -114 10 -13 16
-11 43 11 l31 27 -66 88 c-37 48 -78 100 -92 115 l-26 28 40 35 39 35 102
-107 102 -108 25 24 c14 14 26 29 26 34 0 6 -43 54 -95 108 -52 54 -95 102
-95 106 0 4 13 23 29 42 l29 35 111 -93 c117 -98 125 -100 152 -50 8 15 -5 30
-78 93 -49 41 -99 83 -112 93 l-24 19 24 37 c13 20 27 37 32 37 4 0 59 -35
123 -77 l116 -78 24 30 c12 16 21 32 19 35 -2 4 -56 42 -120 85 -63 43 -115
81 -115 84 0 9 39 71 45 71 3 0 59 -27 125 -60 66 -33 123 -60 128 -60 5 0 15
15 24 33 l16 33 -127 64 c-69 36 -128 66 -130 67 -7 5 22 83 30 83 4 0 65 -20
135 -45 71 -25 133 -44 140 -41 6 2 16 18 22 36 13 35 28 26 -152 91 -60 21
-111 41 -113 43 -3 2 0 22 6 44 l11 39 141 -30 c78 -16 144 -25 149 -21 5 5
10 22 12 39 l3 29 -138 32 c-76 17 -140 34 -143 36 -2 3 -2 24 2 48 6 39 9 42
33 37 50 -10 261 -30 266 -26 2 3 6 20 7 39 l3 34 -145 19 c-80 11 -147 21
-148 22 -2 2 -1 22 3 44 l7 41 149 0 149 0 0 40 0 40 -52 0 c-29 0 -96 3 -150
7 l-96 6 -4 39 c-4 45 -14 41 147 58 147 15 145 14 145 57 l0 36 -82 -7 c-46
-3 -116 -9 -155 -12 l-73 -6 0 36 c0 20 0 39 -1 43 0 8 71 27 214 58 l78 17
-7 32 c-3 17 -9 34 -13 37 -3 4 -71 -6 -150 -22 -80 -16 -145 -27 -146 -26 -4
7 -24 81 -22 82 1 1 65 23 142 50 77 26 142 49 143 51 5 4 -18 74 -24 74 -3 0
-68 -21 -145 -46 -78 -25 -142 -44 -143 -42 -1 2 -9 20 -19 41 -17 37 -17 38
6 46 12 5 75 34 141 65 l118 56 -21 32 c-11 18 -25 32 -29 31 -4 -1 -63 -27
-130 -57 -67 -31 -125 -56 -129 -56 -8 0 -43 56 -43 69 0 5 54 41 120 81 66
40 123 76 126 81 2 5 -3 21 -13 36 -9 15 -18 29 -19 31 -1 2 -59 -32 -129 -75
l-127 -78 -24 30 c-13 17 -24 35 -24 40 1 6 52 50 115 99 l114 88 -26 34 c-22
30 -28 33 -42 21 -9 -8 -62 -50 -117 -95 l-101 -81 -34 35 -33 34 104 105 104
104 -24 28 c-14 15 -26 30 -28 32 -1 3 -51 -43 -110 -102 l-108 -107 -33 34
-34 35 70 88 c74 93 108 142 102 146 -2 1 -16 12 -30 25 l-27 23 -83 -108
c-45 -59 -86 -112 -90 -117 -4 -5 -26 6 -48 23 l-40 31 76 121 c41 66 73 122
71 123 -2 1 -17 12 -35 25 l-32 22 -14 -23 c-8 -13 -42 -69 -76 -125 l-62
-101 -39 21 c-22 12 -40 27 -40 33 0 6 25 64 55 129 30 64 55 120 55 124 0 4
-16 15 -35 24 l-36 17 -60 -127 c-33 -70 -62 -129 -63 -131 -7 -7 -86 31 -86
42 0 6 19 66 41 134 24 73 38 127 32 133 -5 5 -23 11 -40 15 l-31 6 -41 -123
c-23 -68 -45 -129 -49 -135 -5 -8 -20 -8 -53 2 l-46 14 29 136 c16 75 27 138
24 141 -6 6 -76 22 -76 17 0 -8 -51 -239 -56 -258 -5 -16 -13 -18 -52 -12 -25
3 -47 8 -49 10 -2 2 3 61 12 132 8 71 15 135 15 142 0 9 -13 12 -42 10 l-43
-3 -14 -137 -14 -138 -48 0 -49 0 0 145 0 145 -39 0 c-37 0 -39 -2 -45 -37z
m329 -398 c579 -100 1033 -541 1161 -1126 28 -127 26 -447 -4 -581 -152 -687
-733 -1151 -1437 -1150 -163 1 -273 18 -430 67 -220 68 -418 189 -584 356
-210 209 -345 462 -403 751 -29 145 -31 395 -4 532 87 451 382 830 801 1031
150 72 308 114 515 139 66 8 295 -3 385 -19z"/>
<path d="M4975 7391 c-511 -60 -919 -359 -1105 -813 -78 -190 -106 -349 -97
-563 15 -350 143 -642 392 -890 186 -186 406 -304 675 -362 107 -23 418 -25
525 -4 417 82 775 350 958 716 158 317 183 710 66 1042 -184 521 -658 861
-1224 878 -66 2 -151 0 -190 -4z m385 -78 c460 -74 844 -407 984 -851 40 -127
56 -240 56 -393 0 -356 -129 -660 -386 -909 -244 -236 -560 -362 -904 -362
-331 1 -640 123 -879 347 -192 182 -326 423 -378 682 -24 124 -24 388 0 501
87 398 357 734 717 892 244 107 509 138 790 93z"/>
<path d="M5038 7093 l-68 -4 0 -99 0 -100 -27 -5 c-199 -39 -309 -105 -370
-222 -114 -215 -38 -466 170 -568 40 -19 106 -43 147 -53 l75 -18 3 -222 2
-222 -23 0 c-55 0 -182 55 -279 121 -56 38 -78 47 -78 31 0 -4 -25 -52 -55
-107 -30 -54 -55 -104 -55 -110 0 -12 102 -81 175 -117 68 -34 195 -76 254
-84 l49 -6 7 -129 7 -128 27 -5 c14 -3 78 -2 141 2 l115 7 3 120 3 121 75 12
c140 22 277 106 342 209 50 81 67 145 67 263 0 254 -128 405 -397 472 l-88 21
0 169 0 170 33 -7 c75 -17 140 -49 191 -96 l54 -49 96 85 c53 47 96 91 95 98
-1 21 -122 116 -199 156 -74 39 -203 81 -247 81 -22 0 -23 3 -23 104 l0 103
-61 7 c-34 3 -69 5 -78 4 -9 -1 -46 -3 -83 -5z m-68 -634 l0 -151 -37 7 c-108
20 -166 89 -149 179 11 59 86 113 159 115 l27 1 0 -151z m408 -508 c21 -10 45
-27 54 -38 49 -54 62 -157 29 -230 -22 -47 -85 -98 -134 -108 -18 -4 -40 -9
-49 -11 -17 -5 -18 10 -18 209 l0 215 41 -9 c22 -5 57 -18 77 -28z"/>
<path d="M2869 3487 c-63 -24 -100 -58 -126 -114 -21 -46 -25 -66 -21 -133 3
-68 7 -84 33 -122 46 -65 104 -93 190 -93 53 1 80 6 113 23 152 80 157 329 9
416 -54 32 -146 42 -198 23z"/>
<path d="M7255 3491 c-84 -22 -136 -73 -161 -158 -68 -236 190 -411 370 -252
118 104 93 318 -45 389 -42 22 -122 32 -164 21z"/>
<path d="M5827 3483 c-9 -8 -9 -226 -1 -247 5 -13 22 -16 84 -16 64 0 83 4
111 23 47 31 61 62 56 125 -6 88 -58 121 -188 122 -31 0 -59 -3 -62 -7z"/>
<path d="M7980 3356 l0 -136 66 0 c129 0 183 34 192 118 9 99 -40 141 -175
150 l-83 5 0 -137z"/>
<path d="M3390 2405 l0 -135 60 0 c34 0 74 7 89 14 84 44 91 180 12 233 -26
18 -48 23 -97 23 l-64 0 0 -135z"/>
<path d="M5043 2534 c-69 -34 -96 -141 -54 -210 37 -61 126 -79 188 -39 88 58
82 204 -11 246 -50 23 -81 23 -123 3z"/>
<path d="M5870 2405 l0 -135 60 0 c104 0 160 49 160 140 -1 90 -48 130 -152
130 l-68 0 0 -135z"/>
<path d="M6394 2484 c-4 -10 -18 -46 -30 -78 -13 -33 -24 -61 -24 -63 0 -2 29
-3 65 -3 36 0 65 1 65 3 0 8 -58 148 -63 153 -4 4 -10 -2 -13 -12z"/>
</g>
</svg>
